/* XPM */
static char *bbe9d51bdf5c4e5e81de3079ea936eaePxvYdNa93JrHXRMT[] = {
/* columns rows colors chars-per-pixel */
"128 128 8 1 ",
"  c None",
". c #5A4229",
"X c #493651",
"o c #FFF729",
"O c #559D95",
"+ c #56A89B",
"@ c #56A89C",
"# c #57B3A3",
/* pixels */
"................................................................................................................................",
"................................................................................................................................",
"................................................................................................................................",
"................................................................................................................................",
"........oooooooooooooooooooooooooooooooooooooooooooooooooooooooooooooooooooooooooooooooooooooooooooooooooooooooooooooooo........",
"........oooooooooooooooooooooooooooooooooooooooooooooooooooooooooooooooooooooooooooooooooooooooooooooooooooooooooooooooo........",
"........oooooooooooooooooooooooooooooooooooooooooooooooooooooooooooooooooooooooooooooooooooooooooooooooooooooooooooooooo........",
"........oooooooooooooooooooooooooooooooooooooooooooooooooooooooooooooooooooooooooooooooooooooooooooooooooooooooooooooooo........",
"....oooooooo....oooooooooooo........................................................................oooooooooooo....oooooooo....",
"....oooooooo....oooooooooooo........................................................................oooooooooooo....oooooooo....",
"....oooooooo....oooooooooooo........................................................................oooooooooooo....oooooooo....",
"....oooooooo....oooooooooooo........................................................................oooooooooooo....oooooooo....",
"....oooo....O++O........                                                                                ........O++O....oooo....",
"....oooo....@##@........                                                                                ........@##@....oooo....",
"....oooo....+##@........                                                                                ........@##+....oooo....",
"....oooo....O@@O.......X                                                                                X.......O@@O....oooo....",
"....oooooooo........                                                                                        ........oooooooo....",
"....oooooooo........                                                                                        ........oooooooo....",
"....oooooooo........                                                                                        ........oooooooo....",
"....oooooooo.......X                                                                                        X.......oooooooo....",
"....oooooooo....                                                                                                ....oooooooo....",
"....oooooooo....                                                                                                ....oooooooo....",
"....oooooooo....                                                                                                ....oooooooo....",
"....oooooooo...X                                                                                                X...oooooooo....",
"....oooooooo                                                                                                        oooooooo....",
"....oooooooo                                                                                                        oooooooo....",
"....oooooooo                                                                                                        oooooooo....",
"....oooooooo                                                                                                        oooooooo....",
"....oooo....                                                                                                        ....oooo....",
"....oooo....                                                                                                        ....oooo....",
"....oooo....                                                                                                        ....oooo....",
"....oooo....                                                                                                        ....oooo....",
"....oooo....                                                                                                        ....oooo....",
"....oooo....                                                                                                        ....oooo....",
"....oooo....                                                                                                        ....oooo....",
"....oooo....                                                                                                        ....oooo....",
"....oooo....                                                                                                        ....oooo....",
"....oooo....                                                                                                        ....oooo....",
"....oooo....                                                                                                        ....oooo....",
"....oooo....                                                                                                        ....oooo....",
"....oooo....                                                                                                        ....oooo....",
"....oooo....                                                                                                        ....oooo....",
"....oooo....                                                                                                        ....oooo....",
"....oooo....                                                                                                        ....oooo....",
"....oooo....                                                                                                        ....oooo....",
"....oooo....                                                                                                        ....oooo....",
"....oooo....                                                                                                        ....oooo....",
"....oooo....                                                                                                        ....oooo....",
"....oooo....                                                                                                        ....oooo....",
"....oooo....                                                                                                        ....oooo....",
"....oooo....                                                                                                        ....oooo....",
"....oooo....                                                                                                        ....oooo....",
"....oooo....                                                                                                        ....oooo....",
"....oooo....                                                                                                        ....oooo....",
"....oooo....                                                                                                        ....oooo....",
"....oooo....                                                                                                        ....oooo....",
"....oooo....                                                                                                        ....oooo....",
"....oooo....                                                                                                        ....oooo....",
"....oooo....                                                                                                        ....oooo....",
"....oooo....                                                                                                        ....oooo....",
"....oooo....                                                                                                        ....oooo....",
"....oooo....                                                                                                        ....oooo....",
"....oooo....                                                                                                        ....oooo....",
"....oooo....                                                                                                        ....oooo....",
"....oooo....                                                                                                        ....oooo....",
"....oooo....                                                                                                        ....oooo....",
"....oooo....                                                                                                        ....oooo....",
"....oooo....                                                                                                        ....oooo....",
"....oooo....                                                                                                        ....oooo....",
"....oooo....                                                                                                        ....oooo....",
"....oooo....                                                                                                        ....oooo....",
"....oooo....                                                                                                        ....oooo....",
"....oooo....                                                                                                        ....oooo....",
"....oooo....                                                                                                        ....oooo....",
"....oooo....                                                                                                        ....oooo....",
"....oooo....                                                                                                        ....oooo....",
"....oooo....                                                                                                        ....oooo....",
"....oooo....                                                                                                        ....oooo....",
"....oooo....                                                                                                        ....oooo....",
"....oooo....                                                                                                        ....oooo....",
"....oooo....                                                                                                        ....oooo....",
"....oooo....                                                                                                        ....oooo....",
"....oooo....                                                                                                        ....oooo....",
"....oooo....                                                                                                        ....oooo....",
"....oooo....                                                                                                        ....oooo....",
"....oooo....                                                                                                        ....oooo....",
"....oooo....                                                                                                        ....oooo....",
"....oooo....                                                                                                        ....oooo....",
"....oooo....                                                                                                        ....oooo....",
"....oooo....                                                                                                        ....oooo....",
"....oooo....                                                                                                        ....oooo....",
"....oooo....                                                                                                        ....oooo....",
"....oooo....                                                                                                        ....oooo....",
"....oooo....                                                                                                        ....oooo....",
"....oooo....                                                                                                        ....oooo....",
"....oooo....                                                                                                        ....oooo....",
"....oooo....                                                                                                        ....oooo....",
"....oooo....                                                                                                        ....oooo....",
"....oooo....                                                                                                        ....oooo....",
"....oooo....                                                                                                        ....oooo....",
"....oooooooo                                                                                                        oooooooo....",
"....oooooooo                                                                                                        oooooooo....",
"....oooooooo                                                                                                        oooooooo....",
"....oooooooo                                                                                                        oooooooo....",
"....oooooooo...X                                                                                                X...oooooooo....",
"....oooooooo....                                                                                                ....oooooooo....",
"....oooooooo....                                                                                                ....oooooooo....",
"....oooooooo....                                                                                                ....oooooooo....",
"....oooooooo.......X                                                                                        X.......oooooooo....",
"....oooooooo........                                                                                        ........oooooooo....",
"....oooooooo........                                                                                        ........oooooooo....",
"....oooooooo........                                                                                        ........oooooooo....",
"....oooo....O+@O.......X                                                                                X.......O@+O....oooo....",
"....oooo....@##@........                                                                                ........@##@....oooo....",
"....oooo....+##+........                                                                                ........+##+....oooo....",
"....oooo....O@@O........                                                                                ........O@@O....oooo....",
"....oooooooo....oooooooooooo........................................................................oooooooooooo....oooooooo....",
"....oooooooo....oooooooooooo........................................................................oooooooooooo....oooooooo....",
"....oooooooo....oooooooooooo........................................................................oooooooooooo....oooooooo....",
"....oooooooo....oooooooooooo........................................................................oooooooooooo....oooooooo....",
"........oooooooooooooooooooooooooooooooooooooooooooooooooooooooooooooooooooooooooooooooooooooooooooooooooooooooooooooooo........",
"........oooooooooooooooooooooooooooooooooooooooooooooooooooooooooooooooooooooooooooooooooooooooooooooooooooooooooooooooo........",
"........oooooooooooooooooooooooooooooooooooooooooooooooooooooooooooooooooooooooooooooooooooooooooooooooooooooooooooooooo........",
"........oooooooooooooooooooooooooooooooooooooooooooooooooooooooooooooooooooooooooooooooooooooooooooooooooooooooooooooooo........",
"................................................................................................................................",
"................................................................................................................................",
"................................................................................................................................",
"................................................................................................................................"
};
