/* XPM */
static char *_bbb109fa44c4cdcb316935395eccf704A4lIll0slKwIMPW[] = {
/* columns rows colors chars-per-pixel */
"128 128 25 1 ",
"  c None",
". c #49344F",
"X c #493450",
"o c #493550",
"O c #493651",
"+ c #493751",
"@ c #493752",
"# c #4A3753",
"$ c #4A3853",
"% c #4A3854",
"& c #4A3A56",
"* c #4A3F57",
"= c #4A4057",
"- c #4A4058",
"; c #4B4159",
": c #514D6F",
"> c #514E6F",
", c #514F71",
"< c #514F72",
"1 c #525174",
"2 c #525275",
"3 c #559D95",
"4 c #56A89B",
"5 c #56A89C",
"6 c #57B3A3",
/* pixels */
"OOOOOOOOOOOOOOOOOOOOOOOOOOOOOOOOOOOOOOOOOOOOOOOOOOOOOOOOOOOOOOOOOOOOOOOOOOOOOOOOOOOOOOOOOOOOOOOOOOOOOOOOOOOOOOOOOOOOOOOOOOOOOOOO",
"OOOOOOOOOOOOOOOOOOOOOOOOOOOOOOOOOOOOOOOOOOOOOOOOOOOOOOOOOOOOOOOOOOOOOOOOOOOOOOOOOOOOOOOOOOOOOOOOOOOOOOOOOOOOOOOOOOOOOOOOOOOOOOOO",
"OOOOOOOOOOOOOOOOOOOOOOOOOOOOOOOOOOOOOOOOOOOOOOOOOOOOOOOOOOOOOOOOOOOOOOOOOOOOOOOOOOOOOOOOOOOOOOOOOOOOOOOOOOOOOOOOOOOOOOOOOOOOOOOO",
"OOOOOOOO%%%O%%%%%%%%%%%%%%%%%%%%##&#&##&#&####&#&##&#&###&###&##&##&#&###&##&##&##&#&##&#&####&#&##&#&##%%%%%%%%%%%%%%%%OOOOOOOO",
"OOOOOOO%>,,,,,,,,,,,,,,,,,,,,,,,,,,,,,,,,,,,,,,,,,,,,,,,,,,,,,,,,,,,,,,,,,,,,,,,,,,,,,,,,,,,,,,,,,,,,,,,,,,,,,,,,,,,,,<,%OOOOOOO",
"OOOOOOO%,22211111111111111111111111111111111111111111111111111111111111111111111111111111111111111111111111111111111111,%OOOOOOO",
"OOOOO$OO,11111111111111111111111111111111111111111111111111111111111111111111111111111111111111111111111111111111111111,%OOOOOOO",
"OOOO%%%%,111,,>1111111111111,,,,,,,,,,,,,,,,,,,,,,,,,,,,,,,,,,,,,,,,,,,,,,,,,,,,,,,,,,,,,,,,,,,,,,,,111111111111,,,,111,&#%%OOOO",
"OOO%>,,,,<2,&$$&,1111111111,&#%%&##&##&##&##&##&#&##&##&##&#&##&#&##&##&##&##&##&##&##&##&##&##&#&#&,1111111111,&$$&,111,,,,%OOO",
"OOO%,222222,#O.$,1111111111,%OOOOOOOOOOOOOOOOOOOOOOOOOOOOOOOOOOOOOOOOOOOOOOOOOOOOOOOOOOOOOOOOOOOOO.#,1111111111,$O.$,111111,%OOO",
"OOO%,1112<2,#..#,1111111111,%OOOOOOOOOOOOOOOOOOOOOOOOOOOOOOOOOOOOOOOOOOOOOOOOOOOOOOOOOOOOOOOOOOOOOO$,1111111111,#..#,111111,%OOO",
"OOO%,111,,,,;**;,,,,,,,,111,%OOOOOOOOOOOOOOOOOOOOOOOOOOOOOOOOOOOOOOOOOOOOOOOOOOOOOOOOOOOOOOOOOOOOOO&,111,,,,,,,>;=*;>1,,111,%OOO",
"OOO%111,%%#;3443;#%%&##&                                                                                &##&###;3443;#$&,11,%OOO",
"OOO%>11,%OO=4665*.OOOOOO                                                                                OOOOOOO=4665*XO#,11,%OOO",
"OOO%,11,O..*4665*.OOOOOO                                                                                OOOOOOO*5664*.O%,11,%OOO",
"OOO%,11,&&#;3553*OOOOOOO                                                                                OOOOOO.*3553;#%&,1<,%OOO",
"OOO%,111,,,>;***OOOO                                                                                        OOOO**=;,,,,111,%OOO",
"OOO%,111111,#O..OOOO                                                                                        OOOOO.O#,111111,%OOO",
"OOO%,111111,#OOOOOOO                                                                                        OOOOOOO#,111111,%OOO",
"OOO%,111111,&OOOOOOO                                                                                        OOOOOOO%,111111,%OOO",
"OOO%,111111,&OOO                                                                                                OOO%,111111,%OOO",
"OOO%,111111,#OOO                                                                                                OOO%,111111,%OOO",
"OOO%,111111,#OOO                                                                                                OOO%,111111,%OOO",
"OOO%,111111,&OOO                                                                                                OOO%,111111,%OOO",
"OOO%,1111111                                                                                                        1111111,%OOO",
"OOO%,1111111                                                                                                        1111111,%OOO",
"OOO%,1111111                                                                                                        1111111,%OOO",
"OOO%,111,,,,                                                                                                        ,,,,111,%OOO",
"OOO%,11,&$&#                                                                                                        %%%&,11,%OOO",
"OOO%,11,$.OO                                                                                                        OOO#,11,%OOO",
"OOO%,11,#OOO                                                                                                        OOO%,11,%OOO",
"OOO%,11,&OOO                                                                                                        OOO%,11,%OOO",
"OOO%,11,%OOO                                                                                                        OOO#,11,#OOO",
"OOO%,11,%OOO                                                                                                        OOO&,11,&OOO",
"OOO%,11,%OOO                                                                                                        OOO#,11,#OOO",
"OOO%,11,%OOO                                                                                                        OOO#,11,#OOO",
"OOO%,11,&OOO                                                                                                        OOO&,11,&OOO",
"OOO%,11,#OOO                                                                                                        OOO$,11,#OOO",
"OOO%,11,%OOO                                                                                                        OOO#,11,#OOO",
"OOO%,11,%OOO                                                                                                        OOO&,11,&OOO",
"OOO#,11,%OOO                                                                                                        OOO#,11,#OOO",
"OOO&,11,%OOO                                                                                                        OOO&,11,#OOO",
"OOO#,11,%OOO                                                                                                        OOO#,11,&OOO",
"OOO#,11,%OOO                                                                                                        OOO#,11,#OOO",
"OOO#,11,&OOO                                                                                                        OOO&,11,#OOO",
"OOO&,11,#OOO                                                                                                        OOO#,11,&OOO",
"OOO#,11,#OOO                                                                                                        OOO#,11,#OOO",
"OOO#,11,&OOO                                                                                                        OOO&,11,#OOO",
"OOO&,11,#OOO                                                                                                        OOO#,11,#OOO",
"OOO#,11,&OOO                                                                                                        OOO&,11,&OOO",
"OOO#,11,#OOO                                                                                                        OOO#,11,#OOO",
"OOO&,11,#OOO                                                                                                        OOO#,11,#OOO",
"OOO#,11,&OOO                                                                                                        OOO&,11,&OOO",
"OOO&,11,#OOO                                                                                                        OOO#,11,#OOO",
"OOO#,11,#OOO                                                                                                        OOO#,11,#OOO",
"OOO#,11,&OOO                                                                                                        OOO&,11,&OOO",
"OOO#,11,#OOO                                                                                                        OOO#,11,#OOO",
"OOO&,11,#OOO                                                                                                        OOO&,11,#OOO",
"OOO#,11,&OOO                                                                                                        OOO#,11,&OOO",
"OOO#,11,#OOO                                                                                                        OOO#,11,#OOO",
"OOO&,11,#OOO                                                                                                        OOO&,11,#OOO",
"OOO#,11,&OOO                                                                                                        OOO#,11,&OOO",
"OOO#,11,#OOO                                                                                                        OOO#,11,#OOO",
"OOO&,11,#OOO                                                                                                        OOO&,11,#OOO",
"OOO#,11,&OOO                                                                                                        OOO#,11,#OOO",
"OOO#,11,#OOO                                                                                                        OOO&,11,&OOO",
"OOO&,11,#OOO                                                                                                        OOO#,11,#OOO",
"OOO#,11,&OOO                                                                                                        OOO#,11,#OOO",
"OOO&,11,#OOO                                                                                                        OOO&,11,&OOO",
"OOO#,11,#OOO                                                                                                        OOO#,11,#OOO",
"OOO#,11,&OOO                                                                                                        OOO#,11,#OOO",
"OOO&,11,#OOO                                                                                                        OOO&,11,&OOO",
"OOO#,11,#OOO                                                                                                        OOO#,11,#OOO",
"OOO&,11,&OOO                                                                                                        OOO&,11,#OOO",
"OOO#,11,#OOO                                                                                                        OOO#,11,&OOO",
"OOO#,11,#OOO                                                                                                        OOO#,11,#OOO",
"OOO#,11,&OOO                                                                                                        OOO&,11,#OOO",
"OOO#,11,#OOO                                                                                                        OOO#,11,&OOO",
"OOO&,11,#OOO                                                                                                        OOO#,11,#OOO",
"OOO#,11,&OOO                                                                                                        OOO&,11,#OOO",
"OOO&,11,#OOO                                                                                                        OOO#,11,#OOO",
"OOO#,11,&OOO                                                                                                        OOO&,11,&OOO",
"OOO#,11,#OOO                                                                                                        OOO#,11,#OOO",
"OOO&,11,#OOO                                                                                                        OOO#,11,#OOO",
"OOO#,11,&OOO                                                                                                        OOO&,11,&OOO",
"OOO&,11,#OOO                                                                                                        OOO#,11,#OOO",
"OOO#,11,#OOO                                                                                                        OOO#,11,#OOO",
"OOO#,11,&OOO                                                                                                        OOO&,11,&OOO",
"OOO#,11,#OOO                                                                                                        OOO#,11,#OOO",
"OOO&,11,#OOO                                                                                                        OOO&,11,#OOO",
"OOO#,11,&OOO                                                                                                        OOO#,11,&OOO",
"OOO#,11,#OOO                                                                                                        OOO#,11,#OOO",
"OOO#,11,&OOO                                                                                                        OOO&,11,#OOO",
"OOO&,11,#OOO                                                                                                        OOO#,11,&OOO",
"OOO#,11,#OOO                                                                                                        OOO#,11,#OOO",
"OOO#,11,&OOO                                                                                                        OOO&,11,#OOO",
"OOO&,11,#OOO                                                                                                        OOO%,21,OOOO",
"OOO#,11,&OOO                                                                                                        OOO%,11,&OOO",
"OOO#,11,$.OO                                                                                                        OOO$,11,%OOO",
"OOO&,11,&##&                                                                                                        %$$%,11,%OOO",
"OOO#,111,,,,                                                                                                        1,,,111,%OOO",
"OOO&,1111111                                                                                                        1111111,%OOO",
"OOO#,1111111                                                                                                        1111111,%OOO",
"OOO#,1111111                                                                                                        1111111,%OOO",
"OOO#,111111,%OOO                                                                                                OOO%,111111,%OOO",
"OOO&,111111,%OOO                                                                                                OOO%,111111,%OOO",
"OOO#,111111,%OOO                                                                                                OOO%,111111,%OOO",
"OOO#,111111,%OOO                                                                                                OOO%,111111,%OOO",
"OOO&,111111,%OOOOOOO                                                                                        OOOOOOO%,111111,%OOO",
"OOO#,111111,%OOOOOOO                                                                                        OOOOOOO%,111111,%OOO",
"OOO#,111111,%.XOOOOO                                                                                        OOOOO.X#,111111,%OOO",
"OOO&,111,,,>;***OOOO                                                                                        OOOO*;*;,,,,111,%OOO",
"OOO%,11,&##;3453;.OOOOOO                                                                                OOOOOOO*3543;#$&111,$OOO",
"OOO%,11,$.O*5665*OOOOOOO                                                                                OOOOOOX*4665*..$>11,%OOO",
"OOO%,11,$O.*4664*OOOOOOO                                                                                OOOOOOX*4664*.O%,11,%OOO",
"OOO%,11,&##;3543;O%%%%%&                                                                                %%%%%%%;3553;&O%,11,%OOO",
"OOO%,<11,,,>;*=;>,,,,,,,111,&OOOOOOOOOOOOOOOOOOOOOOOOOOOOOOOOOOOOOOOOOOOOOOOOOOOOOOOOOOOOOOOOOOOOOO&,111,,,,,,<,;*=;>,,,112,%OOO",
"OOO%,211111,#.O#,1111111111,#OOOOOOOOOOOOOOOOOOOOOOOOOOOOOOOOOOOOOOOOOOOOOOOOOOOOOOOOOOOOOOOOOOOOOO#,1111111111<OX.#11111<2,%OOO",
"OOO%,2111111$OO%,1111111111,#OOOOOOOOOOOOOOOOOOOOOOOOOOOOOOOOOOOOOOOOOOOOOOOOOOOOOOOOOOOOOOOOOOOOO.$,1111111111,&.O$,111112,%OOO",
"OOO%>,,,111,&##&,1111111111,&#%%##&##&##&##&##&#&##&#&##&##&##&#&##&##&##&##&##&&##&##&#&##&##&##&$&,1111111111,&##&,211,,,>%OOO",
"OOOO%%%&,111,,,,111111111111,,,,,,,,,,,,,,,,,,,,,,,,,,,,,,,,,,,,,,,,,,,,,,,,,,,,,,,,,,,,,,,,,,,,,,,,111111111111,,,,111,&%%%OOOO",
"OOOOOOO%,11111111111111111111111111111111111111111111111111111111111111111111111111111111111111111111111111111111111111,#OOOOOOO",
"OOOOOOO#,11111111111111111111111111111111111111111111111111111111111111111111111111111111111111111111111111111111111111,%OOOOOOO",
"OOOOOOO%>,,,,,,,,,,,,,,,,,,,,,,,,,,,,,,,,,,,,,,,,,,,,,,,,,,,,,,,,,,,,,,,,,,,,,,,,,,,,,,,,,,,,,,,,,,,,,,,,,,,,,,,,,,,,,,>%OOOOOOO",
"OOOOOOOO##&#&##&#&####&#&##&$&##&##&##&###&#&##&##&###&###&#&##&#&####&#&##&#&####&#&##&#&####&#&##&#&##%%%%%%%%%%%%%%%%OOOOOOOO",
"OOOOOOOOOOOOOOOOOOOOOOOOOOOOOOOOOOOOOOOOOOOOOOOOOOOOOOOOOOOOOOOOOOOOOOOOOOOOOOOOOOOOOOOOOOOOOOOOOOOOOOOOOOOOOOOOOOOOOOOOOOOOOOOO",
"OOOOOOOOOOOOOOOOOOOOOOOOOOOOOOOOOOOOOOOOOOOOOOOOOOOOOOOOOOOOOOOOOOOOOOOOOOOOOOOOOOOOOOOOOOOOOOOOOOOOOOOOOOOOOOOOOOOOOOOOOOOOOOOO",
"OOOOOOOOOOOOOOOOOOOOOOOOOOOOOOOOOOOOOOOOOOOOOOOOOOOOOOOOOOOOOOOOOOOOOOOOOOOOOOOOOOOOOOOOOOOOOOOOOOOOOOOOOOOOOOOOOOOOOOOOOOOOOOOO"
};
