/* XPM */
static char *fcb53489c59147b193ad4c2192102a2fpFNWxh7pqvUJyvfG[] = {
/* columns rows colors chars-per-pixel */
"128 128 4 1 ",
"  c None",
". c #FFC20E",
"X c #FFF200",
"o c #57B0A1",
/* pixels */
"................................................................................................................................",
"..XXXXXXXXXXXXXXXXXXXXXXXXXXXXXXXXXXXXXXXXXXXXXXXXXXXXXXXXXXXXXXXXXXXXXXXXXXXXXXXXXXXXXXXXXXXXXXXXXXXXXXXXXXXXXXXXXXXXXXXXXXXX..",
".XX.XXX..................................................................................................................XXX.XX.",
".X.o..                                                                                                                    ..o.X.",
".XX..                                                                                                                      ..XX.",
".XX.                                                                                                                        .XX.",
".XX                                                                                                                          XX.",
".X.                                                                                                                          .X.",
".X.                                                                                                                          .X.",
".X.                                                                                                                          .X.",
".X.                                                                                                                          .X.",
".X.                                                                                                                          .X.",
".X.                                                                                                                          .X.",
".X.                                                                                                                          .X.",
".X.                                                                                                                          .X.",
".X.                                                                                                                          .X.",
".X.                                                                                                                          .X.",
".X.                                                                                                                          .X.",
".X.                                                                                                                          .X.",
".X.                                                                                                                          .X.",
".X.                                                                                                                          .X.",
".X.                                                                                                                          .X.",
".X.                                                                                                                          .X.",
".X.                                                                                                                          .X.",
".X.                                                                                                                          .X.",
".X.                                                                                                                          .X.",
".X.                                                                                                                          .X.",
".X.                                                                                                                          .X.",
".X.                                                                                                                          .X.",
".X.                                                                                                                          .X.",
".X.                                                                                                                          .X.",
".X.                                                                                                                          .X.",
".X.                                                                                                                          .X.",
".X.                                                                                                                          .X.",
".X.                                                                                                                          .X.",
".X.                                                                                                                          .X.",
".X.                                                                                                                          .X.",
".X.                                                                                                                          .X.",
".X.                                                                                                                          .X.",
".X.                                                                                                                          .X.",
".X.                                                                                                                          .X.",
".X.                                                                                                                          .X.",
".X.                                                                                                                          .X.",
".X.                                                                                                                          .X.",
".X.                                                                                                                          .X.",
".X.                                                                                                                          .X.",
".X.                                                                                                                          .X.",
".X.                                                                                                                          .X.",
".X.                                                                                                                          .X.",
".X.                                                                                                                          .X.",
".X.                                                                                                                          .X.",
".X.                                                                                                                          .X.",
".X.                                                                                                                          .X.",
".X.                                                                                                                          .X.",
".X.                                                                                                                          .X.",
".X.                                                                                                                          .X.",
".X.                                                                                                                          .X.",
".X.                                                                                                                          .X.",
".X.                                                                                                                          .X.",
".X.                                                                                                                          .X.",
".X.                                                                                                                          .X.",
".X.                                                                                                                          .X.",
".X.                                                                                                                          .X.",
".X.                                                                                                                          .X.",
".X.                                                                                                                          .X.",
".X.                                                                                                                          .X.",
".X.                                                                                                                          .X.",
".X.                                                                                                                          .X.",
".X.                                                                                                                          .X.",
".X.                                                                                                                          .X.",
".X.                                                                                                                          .X.",
".X.                                                                                                                          .X.",
".X.                                                                                                                          .X.",
".X.                                                                                                                          .X.",
".X.                                                                                                                          .X.",
".X.                                                                                                                          .X.",
".X.                                                                                                                          .X.",
".X.                                                                                                                          .X.",
".X.                                                                                                                          .X.",
".X.                                                                                                                          .X.",
".X.                                                                                                                          .X.",
".X.                                                                                                                          .X.",
".X.                                                                                                                          .X.",
".X.                                                                                                                          .X.",
".X.                                                                                                                          .X.",
".X.                                                                                                                          .X.",
".X.                                                                                                                          .X.",
".X.                                                                                                                          .X.",
".X.                                                                                                                          .X.",
".X.                                                                                                                          .X.",
".X.                                                                                                                          .X.",
".X.                                                                                                                          .X.",
".X.                                                                                                                          .X.",
".X.                                                                                                                          .X.",
".X.                                                                                                                          .X.",
".X.                                                                                                                          .X.",
".X.                                                                                                                          .X.",
".X.                                                                                                                          .X.",
".X.                                                                                                                          .X.",
".X.                                                                                                                          .X.",
".X.                                                                                                                          .X.",
".X.                                                                                                                          .X.",
".X.                                                                                                                          .X.",
".X.                                                                                                                          .X.",
".X.                                                                                                                          .X.",
".X.                                                                                                                          .X.",
".X.                                                                                                                          .X.",
".X.                                                                                                                          .X.",
".X.                                                                                                                          .X.",
".X.                                                                                                                          .X.",
".X.                                                                                                                          .X.",
".X.                                                                                                                          .X.",
".X.                                                                                                                          .X.",
".X.                                                                                                                          .X.",
".X.                                                                                                                          .X.",
".X.                                                                                                                          .X.",
".X.                                                                                                                          .X.",
".X.                                                                                                                          .X.",
".X.                                                                                                                          .X.",
".X.                                                                                                                          .X.",
".X.                                                                                                                          .X.",
".XX                                                                                                                          XX.",
".XX.                                                                                                                        .XX.",
".XX..                                                                                                                      ..XX.",
".X.o..                                                                                                                    ..o.X.",
".XX.XXX..................................................................................................................XXX.XX.",
"..XXXXXXXXXXXXXXXXXXXXXXXXXXXXXXXXXXXXXXXXXXXXXXXXXXXXXXXXXXXXXXXXXXXXXXXXXXXXXXXXXXXXXXXXXXXXXXXXXXXXXXXXXXXXXXXXXXXXXXXXXXXX..",
"................................................................................................................................"
};
