/* XPM */
static char *_2ef8ecdf13e4218e370f3183022bc70IqJkKI7OhIZzxGG4[] = {
/* columns rows colors chars-per-pixel */
"48 48 7 1 ",
"  c #072533",
". c #1428A7",
"X c #4242FF",
"o c #102785",
"O c #29CEFF",
"+ c #072536",
"@ c #0F267D",
/* pixels */
"                                                ",
"                          ..                    ",
"                         .  .              X    ",
"               X      o...  ...o          XOX   ",
"              XOX     o     +  o           X    ",
"               X       . .  . .                 ",
"      ..                 .  .                   ",
"     .  .              .      .                 ",
"  o...  ...o           .  ..  .                 ",
"  o     +  o          o  .  .  o                ",
"   . .  . .           @oo    oo@        ..      ",
"     .  .                              .  .     ",
"   .      .                         o...  ...o  ",
"   .  ..  .                         o     +  o  ",
"  o  .  .  o                         . .  . .   ",
"  @oo    oo@                           .  .     ",
"                                     .      .   ",
"                                     .  ..  .   ",
"                                    o  .  .  o  ",
"                                    @oo    oo@  ",
"                                                ",
"                                                ",
"                                                ",
"                                                ",
"                                                ",
"                                                ",
"        X                                       ",
"       XOX                                      ",
"        X                                       ",
"                                                ",
"                                  X             ",
"                                 XOX            ",
"                                  X             ",
"                                                ",
"                                                ",
"                                                ",
"                                                ",
"                                                ",
"                                                ",
"                                                ",
"                                                ",
"            X                                   ",
"           XOX                                  ",
"            X                                   ",
"                                        X       ",
"                                       XOX      ",
"                                        X       ",
"                                                "
};
