/* XPM */
static char *f8e4b1af7e2c46c1cdc814bdf53c13c7Tri8NhDLADFD6iNd[] = {
/* columns rows colors chars-per-pixel */
"24 24 55 1 ",
"  c None",
". c #745C2A",
"X c #755D2A",
"o c #765D2A",
"O c #755E2A",
"+ c #765E2A",
"@ c #775F2A",
"# c #78602A",
"$ c #79612A",
"% c #79622A",
"& c #7A622A",
"* c #7A632A",
"= c #7B632A",
"- c #7C642A",
"; c #7D652A",
": c #7D662A",
"> c #7E662A",
", c #7F672A",
"< c #7F672B",
"1 c #7F682A",
"2 c #80682A",
"3 c #81692A",
"4 c #80682B",
"5 c #81692B",
"6 c #816A2B",
"7 c #826A2A",
"8 c #826B2A",
"9 c #826B2B",
"0 c #836C2A",
"q c #836C2B",
"w c #846C2A",
"e c #856D2A",
"r c #846C2B",
"t c #856D2B",
"y c #856E2A",
"u c #866E2A",
"i c #876F2A",
"p c #866E2B",
"a c #8B732B",
"s c #8C752B",
"d c #8D762B",
"f c #8D772B",
"g c #B1A219",
"h c #B4A51A",
"j c #B5A61A",
"k c #BAAB1A",
"l c #BAAC1A",
"z c #F2BC11",
"x c #F2BC12",
"c c #F2BE12",
"v c #F3C012",
"b c #F3C112",
"n c #FFF82A",
"m c #FFF82B",
"M c #FFF92B",
/* pixels */
"          XX#X          ",
"         &X&&#&         ",
"         &&mn&&         ",
"        >>xmnx>>        ",
"        11mmnm<>        ",
"       66hmmnmh66       ",
" X&&>466pmmmmmmp66<>*&X ",
"XX&>>66pvmmmmmmxp66>>&#X",
"##mmmmmmmmmMMmmmmmmmmm&X",
"#&xmmmmmmasmMfsmmmmmmx&X",
" &:mmmmmmssmmssmmmmmm>&&",
" *16mmmMmsfmmffmmmmm61& ",
"  >6qMmMmffMMffmmmm06>  ",
"   6qymMmsfMMffmmmi06   ",
"    yybMMllMMllmmbee    ",
"   61ymmMmMMMMmmmme6    ",
"   >6hmmnmmMMMmnnng01   ",
"   >6xmmnnmmMMnnnnv81   ",
"  &>1nnnmnmbbnnnnnn1>&  ",
"  &>gnnnmmeeiinnnnng&&  ",
"  X&nnnnh6eeww6hnmmm&#  ",
"  X&nnz1266  6661zmm#X  ",
"  XX&&=->      >-=&XXX  ",
"   .XX&          =XXX   "
};
