/* XPM */
static char *be50574213c44d37b0acde1125064ab3u4vvKarOH2EQseTX[] = {
/* columns rows colors chars-per-pixel */
"24 24 37 1 ",
"  c None",
". c #8F5B29",
"X c #8F5C29",
"o c #925E29",
"O c #935E29",
"+ c #945F29",
"@ c #965F29",
"# c #966129",
"$ c #976129",
"% c #9B6729",
"& c #A06B29",
"* c #A06C29",
"= c #A16F29",
"- c #A17129",
"; c #A27129",
": c #A27229",
"> c #A57729",
", c #A67729",
"< c #A67929",
"1 c #A97929",
"2 c #A97B29",
"3 c #AA7B29",
"4 c #AA7E29",
"5 c #AB7F29",
"6 c #AC8129",
"7 c #E9DD18",
"8 c #E9DE18",
"9 c #EBE118",
"0 c #FEF110",
"q c #FEF210",
"w c #FEF310",
"e c #FFFE31",
"r c #FFFE34",
"t c #FFFF34",
"y c #FFFF36",
"u c #FFFF37",
"i c #FFFF39",
/* pixels */
"          ++@+          ",
"         X+==$O         ",
"         +2yy2O         ",
"        X&0yy0&X        ",
"        O<riir,O        ",
"       X%7yiiy7%X       ",
" XOOOOO#2riiiir2#OOOOOo ",
"O#=----20yiiiiy02----=$+",
"@=ryiyyyyyiiiyiyyyyiyr=+",
"O&0yiiiiy66yy66yiiiiy0&+",
" +2yiiiiy--yy--yiiiir1#O",
" .#4yiiiy-:iy--iiiiy4#X ",
"  X#4yiii--yi--yiiy4#X  ",
"   .$5riy<<yy<<iir4#X   ",
"    +&0yy99yy99yy0=O    ",
"   .+<yiiyyiiyyiiy,O    ",
"   O%8yiiiiiiiiiiy7%X   ",
"   +%wyiiiiyyiiiiy0&O   ",
"  .+,yiiiiy00riiiir<+X  ",
"  O%7yiiyr4==4ryiiy7%O  ",
"  O-riyr8,#OO#,8ryir-O  ",
"  O=rr04%OX  XO%40ry=O  ",
"  O#=-%#X      X+&-=#X  ",
"   +@++          O++O   "
};
