/* XPM */
static char *c42daa65abee40aec019e6087cc5acf2lcITnz7rvT8Yluz2[] = {
/* columns rows colors chars-per-pixel */
"128 128 31 1 ",
"  c #0A385A",
". c #0C385C",
"X c #0D395E",
"o c #0F3960",
"O c #103961",
"+ c #133A65",
"@ c #1D3C75",
"# c #243F82",
"$ c #31449C",
"% c #3747A8",
"& c #3B49B1",
"* c #3F4BB9",
"= c #3F4BBA",
"- c #404CBB",
"; c #444EC5",
": c #4850CD",
"> c #4B52D3",
", c #4B52D4",
"< c #4E54DB",
"1 c #4F54DD",
"2 c #5156E2",
"3 c #5558EA",
"4 c #5658EC",
"5 c #5659ED",
"6 c #585AF0",
"7 c #5A5CF6",
"8 c #5A5CF7",
"9 c #5B5CF7",
"0 c #5B5CF8",
"q c #5E5EFE",
"w c #5E5EFF",
/* pixels */
"                                                                                                                                ",
"                                                                                                                                ",
"                                                                                                                                ",
"                                                                                                                                ",
"                                                                                                                                ",
"                                                                                                                                ",
"                                                                                                                                ",
"                                                                                                                                ",
"                                                                                                                                ",
"                                                                                                                                ",
"                                                                                                                                ",
"                                                                                                                                ",
"                                                                                                                                ",
"                                                                                                                                ",
"                                                                                                                                ",
"                                                                                                                                ",
"                                                                       XO                                                       ",
"                                                                      &77&                                                      ",
"                                                                     @7340$O                                                    ",
"                                                                    &0wwww9<X                                                   ",
"                                                                   X6w0www:2X                                                   ",
"                                                                    %<6133>$                                                    ",
"                                                                     O-;$-$                                                     ",
"                                                                                                                                ",
"                                                                                                                                ",
"                                                                                                                                ",
"                                                                                                                                ",
"                                                                                                                                ",
"                                                                                                           OO  OX               ",
"                                                                                                          &77&&77&              ",
"                                                                                                         @04470440$O            ",
"                                                                                                        &0wwwwwwww9<.           ",
"                                                                                                       X4w7wwwwwww:2X           ",
"                                                                                                        %161447144>$            ",
"                                                                                                         O=;$--;$=$             ",
"                                                                                                                                ",
"               oO                                                                                                               ",
"              &77&                                                                                                              ",
"             @0440$X                                                                                                            ",
"            &0wwww0<X                                                                                                           ",
"           X6w0www:2X                                                                                                           ",
"            %<6134>$                                                                                                            ",
"             O=;$=$                                                                                                             ",
"                                                                                                                                ",
"                                                                                                                                ",
"                                                                                                                                ",
"                                                                                                                                ",
"                                                                                                                                ",
"                                               OO  Oo                                                                           ",
"                                              &77&&77&                                                                          ",
"                                             @04470440$o                                                                        ",
"                                            &0wwwwwwww0<.                                                                       ",
"                                           X4w7wwwwwww:2X                                                                       ",
"                                            %161447144>$                                                                        ",
"                                             O-;$=-;$=$                                                                         ",
"                                                                                                                                ",
"                                                                                                                                ",
"                                                                                                                   OO           ",
"                                                                                                                 $>77&          ",
"                                                                                                                $3www7+.        ",
"                                                                                                                -wwwww9&        ",
"                                                                                                               O6wwwwww9O       ",
"                                                                                                              &7wwwwwwww0>@     ",
"                                                                                                             +7wwwwwwwwwww3$    ",
"                                                                                                            &6qqqqqqqqqqqqw>.   ",
"                                                                                                           O7wqqqqqqqqqqqqw7+   ",
"                                                                                                         @,9wwqqqqqqqqqqqqqq7&  ",
"                                                                                                        $0wwwwqqqqqqqqqqqqqqw7+ ",
"                                                                                   OO                   >wwwwwwwqqqqqqqqqqqqqq9&",
"O                                                                                 &77&                 +9wwwwwwwqqqqqqqqqqqqqqw9",
"7>$                                                                              @0437$O              &7wwwwwwwwqqqqqqqqqqqqqqwq",
"w97@                                                                            &0wwww9<X            +9wwwwwwwwwqqqqqqqqqqqqqqqq",
"www>                                                                           X6w7www:2X           &7wwwwwwwwwwqqqqqqqqqqqqqqqq",
"www7OX                                                                          %<6134>$           +7wwwwwwwwwwwqqqqqqqqqqqqqqqq",
"wwww7&                                                                           O-;$-$          $>9wwwwwwwwwwwwqqqqqqqqqqqqqqqq",
"wwwww7+                                                                                         @9wwwwwwwwwwwwwwqqqqqqqqqqqqqqqq",
"wwwwww7&                                                                                        :wwwwwwwwwwwwwwwqqqqqqqqqqqqqqqq",
"wwwwwww7+                                                                                      O7wwwwwwwwwwwwwwwqqqqqqqqqqqqqqqq",
"wwwwwwww9>#                                                                                    X7wwwwwwwwwwwwwwwqqqqqqqqqqqqqqqq",
"wwwwwwwwww6#                                                                                    &7wwwwwwwwwwwwwwqqqqqqqqqqqqqqqq",
"wwwwwwwwwww,X                                                                                    +7wwwwwwwwwwwwwqqqqqqqqqqqqqqqq",
"wwwwwwwwwww7+.                 Xo                                                                .&7wwwwwwwwwwwwqqqqqqqqqqqqqqqq",
"wwwwwwwwwwww7&               @>77&                                                                 +7wwwwwwwwwwwqqqqqqqqqqqqqqqq",
"wwwwwwwwwwwww7+             $9wqw7+                                                                .>wwwwwwwwwwwqqqqqqqqqqqqqqqq",
"wwwwwwwwwwwwww7&            >wqqww7&.                                                               @69wwwwwwwwwqqqqqqqqqqqqqqqq",
"wwwwwwwwwwwwwww7X         XO9wqqwww7+                                                  OOX           $>7wwwwwwwwqqqqqqqqqqqqqqqq",
"wwwwwwwwwwwwwww7X        X&7wqqqwwww7>$                                              $,76&             +9wwwwwwwqqqqqqqqqqqqqqqq",
"wwwwwwwwwwwwwww>         O7wqqqqwwwwww3$                                            @7www7+             &9wwwwwwqqqqqqqqqqqqqqqq",
"qqqqqqqqwwwwww0$        &9qqqqqqqqqqqqw>                                            >wwqqq9&             o9wwwwwqqqqqqqqqqqqqqqq",
"qqqqqqqqwwww7,@       XO7qqqqqqqqqqqqqw9               oo                          o7qwqqqw7+             &9wwwwqqqqqqqqqqqqqqqq",
"qqqqqqqqwwww7&       #:7wqqqqqqqqqqqqqqq5&           @>77&                        &7qqqqqqqq7>@          @>9wwwwqqqqqqqqqqqqqqqq",
"qqqqqqqqwwwww7O     $3qqqqqqqqqqqqqqqqqqq6O.        $3www7+                      +7wqqqqqqqqww6$        $9wqwwwwqqqqqqqqqqqqqqqq",
"qqqqqqqqqqqqwq7&X  X>qqqqqqqqqqqqqqqqqqqqq7&        >qqqqq9&                    &7qqqqqqqqqqqqq>        >wwqqqqqqqqqqqqqqqqqqqqq",
"qqqqqqqqqqqqwww7+X O9qqqqqqqqqqqqqqqqqqqqqw9+      +9qqqqqw7+              OX  +7wqqqqqqqqqqqqw9+      +9qqqqqqqqqqqqqqqqqqqqqqq",
"qqqqqqqqqqqqqqwq9&&9wwqqqqqqqqqqqqqqqqqqqqwq7:$ . &9wwqqqqqq7>@          @,70&&0wwwqqqqqqqqqqqqq7&   .&7qqqqqqqqqqqqqqqqqqqqqqqq",
"qqqqqqqqqqqqqqqqw99qqqqqqqqqqqqqqqqqqqqqqqwwwq5@.+7qqqqqqqqqww6$        $3www70wwwwqqqqqqqqqqqqqw7+  +7wqqqqqqqqqqqqqqqqqqqqqqqq",
"qqqqqqqqqqqqqqqqqqqqqqqqqqqqqqqqqqqqqqqqqqqqqqq>&9qqqqqqqqqqqqq>       .>qqqqqqqqqqqqqqqqqqqqqqqwq9&&9wwqqqqqqqqqqqqqqqqqqqqqqqq",
"qqqqqqqqqqqqqqqqqqqqqqqqqqqqqqqqqqqqqqqqqqqqqqq99wqqqqqqqqqqqqw9+      +9qqqqqqqqqqqqqqqqqqqqqqqqqw99wqqqqqqqqqqqqqqqqqqqqqqqqqq",
"qqqqqqqqqqqqqqqqqqqqqqqqqqqqqqqqqqqqqqqqqqqqqqqqwqqqqqqqqqqqqqqq7&    &7wwqqqqqqqqqqqqqqqqqqqqqqqqqqqqqqqqqqqqqqqqqqqqqqqqqqqqqq",
"qqqqqqqqqqqqqqqqqqqqqqqqqqqqqqqqqqqqqqqqqqqqqqqqwwqqqqqqqqqqqqqqw7+  +9qqqqqqqqqqqqqqqqqqqqqqqqqqqqqqqqqqqqqqqqqqqqqqqqqqqqqqqqq",
"qqqqqqqqqqqqqqqqqqqqqqqqqqqqqqqqqqqqqqqqqqqqqqqqqqqqqqqqqqqqqqqqqq9&&9wqqqqqqqqqqqqqqqqqqqqqqqqqqqqqqqqqqqqqqqqqqqqqqqqqqqqqqqqq",
"qqqqqqqqqqqqqqqqqqqqqqqqqqqqqqqqqqqqqqqqqqqqqqqqqqqqqqqqqqqqqqqqqqw99qwqqqqqqqqqqqqqqqqqqqqqqqqqqqqqqqqqqqqqqqqqqqqqqqqqqqqqqqqq",
"qqqqqqqqqqqqqqqqqqqqqqqqqqqqqqqqqqqqqqqqqqqqqqqqqqqqqqqqqqqqqqqqqqwqqqqqqqqqqqqqqqqqqqqqqqqqqqqqqqqqqqqqqqqqqqqqqqqqqqqqqqqqqqqq",
"qqqqqqqqqqqqqqqqqqqqqqqqqqqqqqqqqqqqqqqqqqqqqqqqqqqqqqqqqqqqqqqqqqqqqqqqqqqqqqqqqqqqqqqqqqqqqqqqqqqqqqqqqqqqqqqqqqqqqqqqqqqqqqqq",
"qqqqqqqqqqqqqqqqqqqqqqqqqqqqqqqqqqqqqqqqqqqqqqqqqqqqqqqqqqqqqqqqqqqqqqqqqqqqqqqqqqqqqqqqqqqqqqqqqqqqqqqqqqqqqqqqqqqqqqqqqqqqqqqq",
"qqqqqqqqqqqqqqqqqqqqqqqqqqqqqqqqqqqqqqqqqqqqqqqqqqqqqqqqqqqqqqqqqqqqqqqqqqqqqqqqqqqqqqqqqqqqqqqqqqqqqqqqqqqqqqqqqqqqqqqqqqqqqqqq",
"qqqqqqqqqqqqqqqqqqqqqqqqqqqqqqqqqqqqqqqqqqqqqqqqqqqqqqqqqqqqqqqqqqqqqqqqqqqqqqqqqqqqqqqqqqqqqqqqqqqqqqqqqqqqqqqqqqqqqqqqqqqqqqqq",
"qqqqqqqqqqqqqqqqqqqqqqqqqqqqqqqqqqqqqqqqqqqqqqqqqqqqqqqqqqqqqqqqqqqqqqqqqqqqqqqqqqqqqqqqqqqqqqqqqqqqqqqqqqqqqqqqqqqqqqqqqqqqqqqq",
"qqqqqqqqqqqqqqqqqqqqqqqqqqqqqqqqqqqqqqqqqqqqqqqqqqqqqqqqqqqqqqqqqqqqqqqqqqqqqqqqqqqqqqqqqqqqqqqqqqqqqqqqqqqqqqqqqqqqqqqqqqqqqqqq",
"qqqqqqqqqqqqqqqqqqqqqqqqqqqqqqqqqqqqqqqqqqqqqqqqqqqqqqqqqqqqqqqqqqqqqqqqqqqqqqqqqqqqqqqqqqqqqqqqqqqqqqqqqqqqqqqqqqqqqqqqqqqqqqqq",
"qqqqqqqqqqqqqqqqqqqqqqqqqqqqqqqqqqqqqqqqqqqqqqqqqqqqqqqqqqqqqqqqqqqqqqqqqqqqqqqqqqqqqqqqqqqqqqqqqqqqqqqqqqqqqqqqqqqqqqqqqqqqqqqq",
"qqqqqqqqqqqqqqqqqqqqqqqqqqqqqqqqqqqqqqqqqqqqqqqqqqqqqqqqqqqqqqqqqqqqqqqqqqqqqqqqqqqqqqqqqqqqqqqqqqqqqqqqqqqqqqqqqqqqqqqqqqqqqqqq",
"qqqqqqqqqqqqqqqqqqqqqqqqqqqqqqqqqqqqqqqqqqqqqqqqqqqqqqqqqqqqqqqqqqqqqqqqqqqqqqqqqqqqqqqqqqqqqqqqqqqqqqqqqqqqqqqqqqqqqqqqqqqqqqqq",
"qqqqqqqqqqqqqqqqqqqqqqqqqqqqqqqqqqqqqqqqqqqqqqqqqqqqqqqqqqqqqqqqqqqqqqqqqqqqqqqqqqqqqqqqqqqqqqqqqqqqqqqqqqqqqqqqqqqqqqqqqqqqqqqq",
"qqqqqqqqqqqqqqqqqqqqqqqqqqqqqqqqqqqqqqqqqqqqqqqqqqqqqqqqqqqqqqqqqqqqqqqqqqqqqqqqqqqqqqqqqqqqqqqqqqqqqqqqqqqqqqqqqqqqqqqqqqqqqqqq",
"qqqqqqqqqqqqqqqqqqqqqqqqqqqqqqqqqqqqqqqqqqqqqqqqqqqqqqqqqqqqqqqqqqqqqqqqqqqqqqqqqqqqqqqqqqqqqqqqqqqqqqqqqqqqqqqqqqqqqqqqqqqqqqqq",
"qqqqqqqqqqqqqqqqqqqqqqqqqqqqqqqqqqqqqqqqqqqqqqqqqqqqqqqqqqqqqqqqqqqqqqqqqqqqqqqqqqqqqqqqqqqqqqqqqqqqqqqqqqqqqqqqqqqqqqqqqqqqqqqq",
"qqqqqqqqqqqqqqqqqqqqqqqqqqqqqqqqqqqqqqqqqqqqqqqqqqqqqqqqqqqqqqqqqqqqqqqqqqqqqqqqqqqqqqqqqqqqqqqqqqqqqqqqqqqqqqqqqqqqqqqqqqqqqqqq",
"qqqqqqqqqqqqqqqqqqqqqqqqqqqqqqqqqqqqqqqqqqqqqqqqqqqqqqqqqqqqqqqqqqqqqqqqqqqqqqqqqqqqqqqqqqqqqqqqqqqqqqqqqqqqqqqqqqqqqqqqqqqqqqqq",
"qqqqqqqqqqqqqqqqqqqqqqqqqqqqqqqqqqqqqqqqqqqqqqqqqqqqqqqqqqqqqqqqqqqqqqqqqqqqqqqqqqqqqqqqqqqqqqqqqqqqqqqqqqqqqqqqqqqqqqqqqqqqqqqq",
"qqqqqqqqqqqqqqqqqqqqqqqqqqqqqqqqqqqqqqqqqqqqqqqqqqqqqqqqqqqqqqqqqqqqqqqqqqqqqqqqqqqqqqqqqqqqqqqqqqqqqqqqqqqqqqqqqqqqqqqqqqqqqqqq",
"qqqqqqqqqqqqqqqqqqqqqqqqqqqqqqqqqqqqqqqqqqqqqqqqqqqqqqqqqqqqqqqqqqqqqqqqqqqqqqqqqqqqqqqqqqqqqqqqqqqqqqqqqqqqqqqqqqqqqqqqqqqqqqqq",
"qqqqqqqqqqqqqqqqqqqqqqqqqqqqqqqqqqqqqqqqqqqqqqqqqqqqqqqqqqqqqqqqqqqqqqqqqqqqqqqqqqqqqqqqqqqqqqqqqqqqqqqqqqqqqqqqqqqqqqqqqqqqqqqq",
"qqqqqqqqqqqqqqqqqqqqqqqqqqqqqqqqqqqqqqqqqqqqqqqqqqqqqqqqqqqqqqqqqqqqqqqqqqqqqqqqqqqqqqqqqqqqqqqqqqqqqqqqqqqqqqqqqqqqqqqqqqqqqqqq",
"qqqqqqqqqqqqqqqqqqqqqqqqqqqqqqqqqqqqqqqqqqqqqqqqqqqqqqqqqqqqqqqqqqqqqqqqqqqqqqqqqqqqqqqqqqqqqqqqqqqqqqqqqqqqqqqqqqqqqqqqqqqqqqqq",
"qqqqqqqqqqqqqqqqqqqqqqqqqqqqqqqqqqqqqqqqqqqqqqqqqqqqqqqqqqqqqqqqqqqqqqqqqqqqqqqqqqqqqqqqqqqqqqqqqqqqqqqqqqqqqqqqqqqqqqqqqqqqqqqq",
"qqqqqqqqqqqqqqqqqqqqqqqqqqqqqqqqqqqqqqqqqqqqqqqqqqqqqqqqqqqqqqqqqqqqqqqqqqqqqqqqqqqqqqqqqqqqqqqqqqqqqqqqqqqqqqqqqqqqqqqqqqqqqqqq",
"qqqqqqqqqqqqqqqqqqqqqqqqqqqqqqqqqqqqqqqqqqqqqqqqqqqqqqqqqqqqqqqqqqqqqqqqqqqqqqqqqqqqqqqqqqqqqqqqqqqqqqqqqqqqqqqqqqqqqqqqqqqqqqqq"
};
