/* XPM */
static char *_f225914e7de46f9ddf2154bd029c957zwHLxnWc6mSEhz6D[] = {
/* columns rows colors chars-per-pixel */
"24 24 5 1 ",
"  c None",
". c #5A4229",
"X c #9C8C18",
"o c #EFAD10",
"O c #FFF729",
/* pixels */
"          ....          ",
"         ......         ",
"         ..OO..         ",
"        ..oOOo..        ",
"        ..OOOO..        ",
"       ..XOOOOX..       ",
" ........OOOOOO........ ",
"........oOOOOOOo........",
"..OOOOOOOOOOOOOOOOOOOO..",
"..oOOOOOO..OO..OOOOOOo..",
" ..OOOOOO..OO..OOOOOO...",
" ...OOOOO..OO..OOOOO... ",
"  ...OOOO..OO..OOOO...  ",
"   ...OOO..OO..OOO...   ",
"    ..oOOXXOOXXOOo..    ",
"   ...OOOOOOOOOOOO..    ",
"   ..XOOOOOOOOOOOOX..   ",
"   ..oOOOOOOOOOOOOo..   ",
"  ...OOOOOOooOOOOOO...  ",
"  ..XOOOOO....OOOOOX..  ",
"  ..OOOOX......XOOOO..  ",
"  ..OOo....  ....oOO..  ",
"  .......      .......  ",
"   ....          ....   "
};
